<svg viewBox="0 0 100 100" xmlns="http://www.w3.org/2000/svg">
  <!-- Kensan Logo - Dark Mode -->
  <!-- 砥石（Whetstone） -->
  <rect x="15" y="61" width="70" height="17" rx="2.5" fill="#475569"/>
  <line x1="17" y1="63.5" x2="83" y2="63.5" stroke="#64748B" stroke-width="1.5" stroke-linecap="round"/>
  
  <!-- 成長曲線（Growth Curve） -->
  <path d="M18,58 Q38,50 55,38 Q72,24 82,12 L82,58 Z" fill="#38BDF8"/>
  <path d="M22,56 Q40,48 56,37 Q72,24 80,14 L80,22 Q70,32 54,44 Q38,54 22,58 Z" fill="#BAE6FD" opacity="0.6"/>
  
  <!-- スパークル（Sparkle） -->
  <path d="M88,8 L90,3 L92,8 L97,10 L92,12 L90,17 L88,12 L83,10 Z" fill="#7DD3FC"/>
  <path d="M78,2 L79,-1 L80,2 L83,3 L80,4 L79,7 L78,4 L75,3 Z" fill="#BAE6FD"/>
  <path d="M95,20 L96,18 L97,20 L99,21 L97,22 L96,24 L95,22 L93,21 Z" fill="#E0F2FE"/>
</svg>
